<svg width="1650" height="500" viewBox="0 0 1650 500" fill="none" xmlns="http://www.w3.org/2000/svg">
<path d="M350 250H400V150H500V250H450V350H300V400H250V450H50V350H250V150H350V250ZM650 250H700V150H800V250H850V150H950V250H900V350H500V250H550V150H650V250ZM1450 150V250H1400V350H950V250H1050V200H1200V250H1350V150H1450ZM1600 300H1550V350H1450V250H1500V50H1600V300ZM1050 200H1000V150H1050V200ZM1300 150H1050V100H1100V50H1300V150ZM500 100H400V50H500V100ZM1425 100H1375V50H1425V100Z" fill="black"/>
</svg>
