<svg width="24" height="23" viewBox="0 0 24 23" fill="none" xmlns="http://www.w3.org/2000/svg">
<path d="M17.9494 0H5.99127C2.68761 0 0 2.68761 0 5.99127V16.9312C0 20.2349 2.68761 22.9225 5.99127 22.9225H17.9494C21.2531 22.9225 23.9407 20.2349 23.9407 16.9312V5.99127C23.9407 2.68761 21.2531 0 17.9494 0ZM2.11353 5.99127C2.11353 3.85337 3.85337 2.11351 5.99127 2.11351H17.9494C20.0873 2.11351 21.8272 3.85337 21.8272 5.99127V16.9312C21.8272 19.0691 20.0873 20.809 17.9494 20.809H5.99127C3.85337 20.809 2.11353 19.0691 2.11353 16.9312V5.99127Z" fill="black"/>
<path d="M11.9713 17.0325C15.0435 17.0325 17.5442 14.5331 17.5442 11.4596C17.5442 8.38612 15.0448 5.88672 11.9713 5.88672C8.89785 5.88672 6.39844 8.38612 6.39844 11.4596C6.39844 14.5331 8.89785 17.0325 11.9713 17.0325ZM11.9713 8.00159C13.8791 8.00159 15.4307 9.55323 15.4307 11.461C15.4307 13.3687 13.8791 14.9203 11.9713 14.9203C10.0636 14.9203 8.51197 13.3687 8.51197 11.461C8.51197 9.55323 10.0636 8.00159 11.9713 8.00159Z" fill="black"/>
<path d="M18.0601 6.78813C18.8874 6.78813 19.5617 6.11504 19.5617 5.28617C19.5617 4.45731 18.8888 3.78418 18.0601 3.78418C17.2315 3.78418 16.5586 4.45731 16.5586 5.28617C16.5586 6.11504 17.2315 6.78813 18.0601 6.78813Z" fill="black"/>
</svg>
