<svg width="19" height="22" viewBox="0 0 19 22" fill="none" xmlns="http://www.w3.org/2000/svg">
<path d="M18.3367 5.1261V8.77502C17.6992 8.71273 16.8708 8.56786 15.9544 8.23208C14.7579 7.79339 13.8672 7.19361 13.2838 6.7292V14.1042L13.269 14.0812C13.2784 14.2274 13.2838 14.3763 13.2838 14.5266C13.2838 18.1891 10.3047 21.1705 6.64192 21.1705C2.97919 21.1705 0 18.1891 0 14.5266C0 10.8642 2.97919 7.88142 6.64192 7.88142C7.00061 7.88142 7.35255 7.90984 7.69635 7.96535V11.5615C7.36608 11.4437 7.01144 11.38 6.64192 11.38C4.90801 11.38 3.49625 12.7909 3.49625 14.5266C3.49625 16.2624 4.90801 17.6732 6.64192 17.6732C8.37583 17.6732 9.78759 16.2611 9.78759 14.5266C9.78759 14.4616 9.78624 14.3967 9.78218 14.3317V0H13.4273C13.4409 0.308703 13.453 0.620128 13.4666 0.92883C13.4909 1.53676 13.7075 2.12032 14.0851 2.59827C14.5278 3.16017 15.1815 3.81275 16.0992 4.33402C16.9588 4.8201 17.7655 5.02997 18.3367 5.12881V5.1261Z" fill="black"/>
</svg>
