<svg width="203" height="24" viewBox="0 0 203 24" fill="none" xmlns="http://www.w3.org/2000/svg">
<path d="M126.424 12L120.328 24H108.136L114.232 12L108.136 0H120.328L126.424 12Z" fill="black"/>
<path d="M144.712 0L138.616 12L144.712 24H132.52L126.424 12L132.52 0H144.712Z" fill="black"/>
<path d="M0 0H11.9268V12H23.8536V24H0V0Z" fill="black"/>
<path d="M25.6779 24V0H37.6047V24H25.6779Z" fill="black"/>
<path d="M169.472 8.06979e-07L169.426 12H163.05V24H151.123V12L144.747 12L144.701 4.24222e-06L169.472 8.06979e-07Z" fill="black"/>
<path d="M39.4394 0V24H51.3662V11.5385L57.1521 24H74.3023V0H62.3755V11.5385L57.1521 0H39.4394Z" fill="black"/>
<path d="M76.1373 0V24H87.1466V11.5385L93.5688 24H108.248L99.9909 11.9306H108.248L108.248 0H93.5688L87.1466 7.38461V0H76.1373Z" fill="black"/>
<path fill-rule="evenodd" clip-rule="evenodd" d="M191.063 0H171.307V24H182.253V20.1728H190.171C192.653 20.1728 193.35 21.4931 193.35 24H202.461V21.9354C202.461 18.4884 200.213 16.4124 196.646 16.1774C200.406 15.0414 202.5 12.4954 202.5 8.61749C202.5 2.93778 198.701 0 191.063 0ZM188.892 11.7447H182.253V6.3H188.892C191.334 6.3 193.001 6.73087 193.001 9.00276C193.001 11.2746 191.334 11.7447 188.892 11.7447Z" fill="black"/>
</svg>
