<svg width="506" height="60" viewBox="0 0 506 60" fill="none" xmlns="http://www.w3.org/2000/svg">
<path d="M0 0H30V30H60V60H0V0Z" fill="currentColor"/>
<path d="M64.5887 60V0H94.5887V60H64.5887Z" fill="currentColor"/>
<path d="M422.281 2.01745e-06L422.166 30H406.127V60H376.127V30L360.088 30L359.973 1.06056e-05L422.281 2.01745e-06Z" fill="currentColor"/>
<path d="M334.589 30.0002L359.974 60H323.05L316.128 51.8184L309.205 60H272.282L297.666 30.0002L272.281 0H309.204L316.128 8.18202L323.051 0L359.973 1.06056e-05L334.589 30.0002Z" fill="currentColor"/>
<path d="M99.2037 0V60H129.204V28.8462L143.757 60H186.896V0H156.896V28.8462L143.757 0H99.2037Z" fill="currentColor"/>
<path d="M191.512 0V60H219.204V28.8462L235.358 60H272.282L251.512 29.8264H272.281L272.281 0H235.358L219.204 18.4615V0H191.512Z" fill="currentColor"/>
<path fillRule="evenodd" clipRule="evenodd" d="M476.589 0H426.896V60H454.428V50.4319H474.346C480.588 50.4319 482.343 53.7327 482.343 60H505.26V54.8386C505.26 46.2211 499.604 41.031 490.632 40.4435C500.091 37.6036 505.357 31.2384 505.357 21.5437C505.357 7.34445 495.8 0 476.589 0ZM471.128 29.3617H454.428V15.75H471.128C477.272 15.75 481.465 16.8272 481.465 22.5069C481.465 28.1866 477.272 29.3617 471.128 29.3617Z" fill="currentColor"/>
</svg>
